name processed_emg_signals
nRows=90
nColumns=7
 
endheader
time	RGLTMED	RRF	RADDLONG	RST	RTA	RGM
0.0	0.0606423674148102	0.2176526958108245	0.0251108028494925	0.0228017031104112	0.0059568654183954	0.1576766610755857
0.001	0.0651236533583562	0.2319908887781847	0.0341672232449615	0.0197951053541379	0.0084707622308892	0.1653081877720916
0.002	0.0696461992628404	0.2463342063051894	0.0432187031136559	0.0167990360065198	0.0109721236833538	0.1729618751469123
0.003	0.0742072713969655	0.2606727781256805	0.0522597965377147	0.0138155841420556	0.0134594352386245	0.1806331373879629
0.004	0.0788040792894373	0.2749966809620172	0.0612850612269019	0.010846839382446	0.0159312026492668	0.1883173725324959
0.005	0.0834337793059108	0.2892959519625335	0.070289065859623	0.0078948895137179	0.0183859543374413	0.1960099697618388
0.006	0.0880934782992787	0.3035606023300394	0.0792663974223068	0.0049618181187693	0.0208222437392719	0.2037063167459038
0.007	0.0927802373210828	0.3177806311159547	0.0882116685317482	0.0020497022303858	0.0232386516078304	0.2114018070171862
0.008	0.0974910753820814	0.3319460391553755	0.0971195247261964	0.0008393899905913	0.0256337882690153	0.2190918473542135
0.009000000000000001	0.1022229732513586	0.34604684311843	0.1059846517110246	0.0037034015477825	0.0280062958249536	0.2267718651542482
0.01	0.1069728772837943	0.360073089653489	0.1148017825458266	0.0065402888687273	0.0303548502995651	0.234437315775112
0.011	0.1117377032673844	0.3740148695972147	0.1235657047602732	0.0093480240279207	0.0326781637210447	0.2420836898255454
0.012	0.1165143402824327	0.3878623322258683	0.1322712673857809	0.0121245969304678	0.0349749861361731	0.2497065203832515
0.013000000000000001	0.1212996545666441	0.4016056995211464	0.1409133878909278	0.0148680174538823	0.0372441075514207	0.2573013901192302
0.014	0.1260904933808386	0.4152352804233525	0.1494870590077806	0.0175763175460161	0.0394843597959455	0.2648639383066768
0.015	0.1308836888713703	0.4287414850434247	0.1579873554370662	0.0202475532776285	0.0416946183017643	0.2723898676924612
0.016	0.1356760619257271	0.4421148388048848	0.1664094404193827	0.0228798068485963	0.0438738037964448	0.279874951209469
0.017	0.140464426018474	0.4553459964862167	0.174748572160995	0.025471188546972	0.0460208839039076	0.2873150385088228
0.018000000000000002	0.1452455910444483	0.4684257561334315	0.1830001101027378	0.0280198386604881	0.0481348746490104	0.2947060622922223
0.019	0.150016367136357	0.4813450728127047	0.1911595210217162	0.0305239293403386	0.0502148418617477	0.3020440444260499
0.02	0.1547735684635084	0.4940950721722092	0.1992223849560169	0.0329816664172216	0.052259902477054	0.3093251018206572
0.021	0.1595140170082207	0.5066670637829593	0.2071844009434468	0.0353912911698858	0.0542692257266231	0.3165454520598855
0.022	0.1642345463162739	0.5190525542278028	0.215041392565265	0.0377510820466185	0.056242034219492	0.3237014187676553
0.023	0.1689320052176263	0.5312432599084836	0.2227893132864029	0.040059356340126	0.0581776049088183	0.3307894367006075
0.024	0.1736032615134218	0.5432311195404295	0.2304242515837488	0.0423144718166594	0.0600752699429361	0.3378060565577352
0.025	0.1782452056253747	0.5550083063064842	0.2379424358549026	0.0445148283003672	0.0619344173992658	0.3447479494997813
0.026000000000000002	0.1828547542028575	0.5665672396416425	0.2453402390995353	0.0466588692139188	0.0637544918999607	0.3516119113725117
0.027	0.1874288536834382	0.5779005966227555	0.252614183366162	0.048745083076661	0.0655349951084129	0.3583948666289071
0.028	0.1919644838019797	0.589001322938031	0.2597609439566043	0.0507720049613832	0.0672754861058289	0.3650938719458976
0.029	0.1964586610437748	0.5998626434123884	0.2667773533805325	0.0527382179108673	0.0689755816475194	0.3717061195320808
0.03	0.2009084420375601	0.6104780720648021	0.2736604050528083	0.0546423543151981	0.0706349562989741	0.3782289401234202
0.031	0.2053109268847734	0.6208414216743349	0.2804072567268999	0.0564830972509811	0.0722533424524465	0.3846598056653988
0.032	0.2096632624218974	0.6309468128310413	0.2870152336589472	0.0582591817833594	0.0738305302251773	0.3909963316816781
0.033	0.2139626454127944	0.6407886824478223	0.2934818314986258	0.0599693962320312	0.0753663672408736	0.3972362793309356
0.034	0.2182063256683058	0.6503617917086556	0.2998047189045725	0.0616125834022179	0.0768607582961905	0.4033775571544418
0.035	0.2223916090897399	0.6596612334285371	0.3059817398835358	0.0631876417817599	0.0783136649140233	0.4094182225172704
0.036000000000000004	0.2265158606333712	0.66868243880053	0.3120109158538938	0.0646935267054317	0.0797251047854992	0.4153564827460634
0.037	0.2305765071926965	0.6774211835057055	0.3178904474352848	0.0661292514875963	0.0810951511027094	0.4211906959659164
0.038	0.2345710403955859	0.6858735931625282	0.3236187159663757	0.0674938885243092	0.0824239317844982	0.4269193716390872
0.039	0.2384970193142203	0.6940361480936886	0.3291942847540502	0.0687865703659771	0.0837116285977277	0.4325411708074667
0.04	0.242352073086642	0.7019056873901673	0.3346159000568947	0.0700064907616647	0.0849584761767537	0.4380549060406113
0.041	0.2461339034499853	0.7094794122542114	0.3398824918064438	0.0711529056761153	0.0861647609438642	0.4434595410902627
0.042	0.2498402871863991	0.7167548886053392	0.3449931740688683	0.0722251342805007	0.0873308199337399	0.4487541902517908
0.043000000000000003	0.2534690784829469	0.7237300489358743	0.3499472452498004	0.0732225599178146	0.0884570395251113	0.4539381174321385
0.044	0.2570182112063858	0.7304031934057034	0.3547441880436514	0.0741446310435969	0.0895438540829335	0.4590107349233865
0.045	0.2604857010939885	0.7367729901697196	0.3593836691288172	0.0749908621426157	0.0905917445144743	0.4639716018802194
0.046	0.2638696478609202	0.7428384749353146	0.3638655386100867	0.0757608346218518	0.0916012367426707	0.468820422499545
0.047	0.2671682372251833	0.748599049751493	0.3681898292091024	0.0764541976801548	0.092572900099948	0.4735570439004372
0.048	0.2703797428511296	0.754054481035866	0.3723567552042437	0.0770706691547896	0.0935073456456364	0.4781814537033939
0.049	0.2735025282124045	0.7592048968499772	0.3763667111211892	0.0776100363450178	0.0944052244100942	0.4826937773084405
0.05	0.2765350483752677	0.7640507834376852	0.3802202701749819	0.0780721568126716	0.0952672255688259	0.487094274872864
0.051000000000000004	0.2794758517027229	0.7685929810445529	0.3839181824648408	0.0784569591595314	0.0960940745501439	0.4913833379908018
0.052000000000000005	0.2823235814793088	0.7728326790392198	0.3874613729229187	0.0787644437811002	0.0968865310801273	0.4955614860788305
0.053	0.2850769774563205	0.7767714103591221	0.3908509390182377	0.0789946835962839	0.0976453871689865	0.4996293624733103
0.054	0.2877348773161247	0.7804110453046628	0.3940881482175586	0.079147824752286	0.0983714650432981	0.5035877302471127
0.055	0.2902962180542196	0.7837537847065683	0.397174435204989	0.0792240873041157	0.0990656150289183	0.5074374677555632
0.056	0.2927600372764979	0.7868021524920361	0.4001113988632198	0.0792237658679645	0.0997287133897635	0.5111795639239908
0.057	0.2951254744092312	0.789558987675868	0.4029007990190286	0.0791472302475891	0.1003616601278527	0.5148151132928052
0.058	0.2973917718184782	0.7920274358036973	0.4055445529560554	0.0789949260327133	0.1009653767502415	0.5183453108397715
0.059000000000000004	0.2995582758353933	0.7942109398740806	0.4080447316976126	0.078767375168125	0.1015408040088073	0.5217714466033033
0.06	0.3016244376838159	0.7961132307668053	0.4104035560621715	0.0784651764921157	0.1020888996189417	0.5250949001340172
0.061	0.3035898143056439	0.7977383172040906	0.4126233924949176	0.078089006242566	0.1026106359632934	0.5283171348040446
0.062	0.3054540690796012	0.7990904752714428	0.4147067486793975	0.0776396185289212	0.1031069977867203	0.531439692004468
0.063	0.3072169724279854	0.8001742375248683	0.4166562689348858	0.0771178457682182	0.1035789798884183	0.5344641852609786
0.064	0.3088784023057772	0.8009943817114145	0.4184747294062027	0.0765245990833318	0.1040275848172397	0.5373922942962672
0.065	0.3104383445657628	0.8015559191298806	0.4201650330531758	0.0758608686614812	0.1044538205757956	0.5402257590661728
0.066	0.3118968931941634	0.801864082658969	0.4217302044473155	0.0751277240712849	0.1048586983388609	0.5429663737949176
0.067	0.313254250411378	0.8019243144797522	0.4231733843830638	0.0743263145363636	0.1052432301911921	0.5456159810335394
0.068	0.3145107266344549	0.8017422535187188	0.4244978243106825	0.0734578691637713	0.105608426889599	0.5481764657646142
0.069	0.3156667402996279	0.8013237226369372	0.4257068805972916	0.0725236971252828	0.1059552956538587	0.550649749575123
0.07	0.3167228175449852	0.8006747155896515	0.4268040086224089	0.0715251877895872	0.1062848379906993	0.5530377849183744
0.07100000000000001	0.3176795917543661	0.7998013837801904	0.4277927567143201	0.070463810803446	0.1065980475548751	0.5553425494842679
0.07200000000000001	0.3185378029644959	0.7987100228325565	0.4286767599337445	0.0693411161196286	0.1068959080510711	0.5575660406957851
0.073	0.3192982971373725	0.7974070590077965	0.4294597337127295	0.0681587339696814	0.1071793911801499	0.5597102703478053
0.074	0.3199620252999028	0.7958990354914373	0.4301454673578364	0.0669183747793638	0.1074494546330978	0.5617772594023773
0.075	0.3205300425528285	0.794192598582239	0.4307378174283741	0.0656218290248232	0.1077070401358694	0.5637690329529413
0.076	0.3210035069503583	0.79229448381592	0.4312407010016745	0.0642709670274268	0.1079530715482337	0.5656876153680793
0.077	0.3213836782517641	0.7902115020609939	0.4316580888389309	0.0628677386853021	0.1081884530195405	0.567535025623557
0.078	0.3216719165460874	0.7879505256253717	0.4319939984658707	0.061414173139536	0.1084140672043769	0.5693132728299002
0.079	0.3218696807503756	0.7855184744126926	0.4322524871837669	0.059912378373161	0.1086307735408455	0.5710243519609578
0.08	0.3219785269820556	0.7829223021670472	0.4324376450261773	0.0583645407409118	0.1088394065942345	0.5726702397873272
0.081	0.3220001068051877	0.7801689828436454	0.4325535876784079	0.0567729244280809	0.1090407744685894	0.574252891016767
0.082	0.3219361653503169	0.7772654971411135	0.4326044493768241	0.0551398708365639	0.1092356572884531	0.5757742346418385
0.083	0.3217885393072329	0.7742188192294878	0.4325943758058295	0.0534677978963951	0.1094248057528334	0.5772361704933763
0.084	0.3215591547897328	0.7710359037052026	0.4325275170101649	0.0517591993009118	0.1096089397631126	0.5786405659970048
0.085	0.3212500250712405	0.7677236728024316	0.432408020338715	0.0500166436637861	0.1097887471263524	0.5799892531286771
0.08600000000000001	0.320863248190092	0.7642890038881176	0.4322400234355342	0.0482427735960424	0.1099648823351445	0.5812840255642273
0.08700000000000001	0.3204010044228286	0.7607387172661423	0.4320276472917917	0.0464403047013153	0.1101379654249052	0.5825266360172211
0.088	0.3198655536239685	0.7570795643145013	0.4317749893721838	0.0446120244875194	0.1103085809092417	0.5837187937587229
0.089	0.3192592324304777	0.7533182159784304	0.4314861168280321	0.0427607911931387	0.110477276793852	0.5848621623119984
